<?xml version="1.0" standalone="no"?>
<!DOCTYPE svg PUBLIC "-//W3C//DTD SVG 20010904//EN"
 "http://www.w3.org/TR/2001/REC-SVG-20010904/DTD/svg10.dtd">
<svg version="1.0" xmlns="http://www.w3.org/2000/svg"
 width="512.000000pt" height="512.000000pt" viewBox="0 0 512.000000 512.000000"
 preserveAspectRatio="xMidYMid meet">

<g transform="translate(0.000000,512.000000) scale(0.100000,-0.100000)"
fill="#000000" stroke="none">
<path d="M2485 4911 c-48 -22 -79 -54 -100 -103 -13 -33 -15 -184 -15 -1313
l0 -1275 -38 0 c-27 0 -45 -7 -60 -23 -19 -21 -22 -35 -22 -119 l0 -95 -87 -6
c-405 -29 -739 -328 -808 -722 -32 -184 -16 -225 87 -225 l55 0 -23 -134 c-41
-231 -94 -434 -150 -568 -30 -72 -30 -83 1 -113 l24 -25 1211 0 1211 0 24 25
c31 30 31 41 1 113 -57 135 -108 329 -150 568 l-23 134 57 0 c47 0 60 4 80 25
21 23 23 30 17 107 -31 403 -329 734 -722 803 -48 8 -110 15 -136 15 l-49 0 0
98 c0 90 -2 100 -23 120 -15 14 -36 22 -60 22 l-37 0 0 1278 c0 1220 -1 1279
-19 1317 -45 98 -152 140 -246 96z m109 -137 c14 -14 16 -144 16 -1285 l0
-1269 -50 0 -50 0 0 1269 c0 1141 2 1271 16 1285 8 9 24 16 34 16 10 0 26 -7
34 -16z m136 -2744 l0 -50 -170 0 -170 0 0 50 0 50 170 0 170 0 0 -50z m375
-219 c245 -81 424 -255 499 -487 9 -29 20 -75 25 -103 l8 -51 -1077 0 -1077 0
8 51 c48 302 300 555 607 609 26 5 247 7 492 6 435 -2 447 -2 515 -25z m379
-803 c3 -13 10 -57 16 -98 21 -140 103 -477 137 -567 4 -11 -26 -13 -158 -11
l-163 3 -22 65 c-13 36 -30 99 -39 140 -23 104 -34 130 -62 141 -31 12 -71 2
-83 -21 -6 -10 -10 -34 -10 -52 0 -33 39 -198 59 -250 l11 -28 -114 0 -113 0
-16 58 c-22 81 -34 149 -52 292 -16 125 -22 143 -58 161 -26 15 -76 -7 -88
-38 -13 -35 43 -426 67 -465 3 -4 -113 -8 -257 -8 l-261 0 6 23 c13 47 37 197
39 247 2 44 -2 55 -22 71 -52 43 -106 12 -116 -68 -8 -67 -45 -255 -51 -265
-3 -4 -61 -8 -129 -8 l-124 0 16 53 c20 66 83 375 83 405 0 49 -71 80 -114 49
-12 -9 -27 -60 -50 -177 -19 -91 -44 -202 -56 -247 l-22 -83 -129 0 c-71 0
-129 2 -129 4 0 3 11 40 25 83 37 118 91 345 109 463 9 58 19 115 22 128 l4
22 920 0 920 0 4 -22z"/>
<path d="M2142 1594 c-16 -11 -22 -25 -22 -54 0 -71 -7 -70 440 -70 447 0 440
-1 440 70 0 71 7 70 -440 70 -342 0 -399 -2 -418 -16z"/>
</g>
</svg>
