<?xml version="1.0" standalone="no"?>
<!DOCTYPE svg PUBLIC "-//W3C//DTD SVG 20010904//EN"
 "http://www.w3.org/TR/2001/REC-SVG-20010904/DTD/svg10.dtd">
<svg version="1.0" xmlns="http://www.w3.org/2000/svg"
 width="801.000000pt" height="801.000000pt" viewBox="0 0 801.000000 801.000000"
 preserveAspectRatio="xMidYMid meet">

<g transform="translate(0.000000,801.000000) scale(0.100000,-0.100000)"
fill="#000000" stroke="none">
<path d="M0 7999 c0 -5 5 -7 10 -4 5 3 10 8 10 11 0 2 -4 4 -10 4 -5 0 -10 -5
-10 -11z"/>
<path d="M6380 6129 c-110 -22 -76 11 -1442 -1356 l-1296 -1298 -131 -591
c-72 -325 -131 -602 -131 -616 0 -75 84 -157 160 -158 26 0 855 178 1190 255
31 8 2578 2550 2619 2615 79 123 79 277 1 400 -16 25 -174 190 -352 366 -345
343 -368 362 -483 383 -66 12 -72 12 -135 0z m155 -227 c11 -6 160 -152 332
-324 264 -265 313 -319 324 -355 23 -80 6 -109 -164 -280 -83 -84 -156 -153
-162 -153 -5 0 -190 180 -410 400 l-400 400 160 160 c136 136 165 161 200 168
42 9 87 3 120 -16z m-217 -865 l402 -402 -1009 -1009 -1009 -1009 -405 404
-405 404 1006 1008 c554 554 1009 1007 1012 1007 3 0 186 -181 408 -403z
m-2174 -2162 c185 -185 336 -339 336 -343 0 -10 -864 -199 -868 -190 -3 6 169
800 184 851 3 9 7 17 9 17 2 0 155 -151 339 -335z"/>
<path d="M972 4031 c-67 -25 -131 -62 -202 -117 -85 -65 -111 -97 -117 -143
-5 -36 -2 -44 30 -76 58 -58 93 -51 208 44 102 83 201 111 268 76 47 -24 100
-94 151 -200 60 -125 88 -203 207 -590 52 -170 113 -359 135 -420 289 -785
677 -1030 1263 -796 147 59 373 191 394 230 15 28 14 67 -4 101 -33 64 -100
68 -189 11 -96 -60 -238 -129 -339 -163 -126 -43 -282 -51 -384 -20 -165 51
-301 187 -417 419 -92 183 -133 298 -267 731 -167 543 -245 715 -380 836 -80
72 -120 89 -219 93 -66 3 -97 -1 -138 -16z"/>
</g>
</svg>
