<?xml version="1.0" encoding="utf-8"?>
<!-- Svg Vector Icons : http://www.onlinewebfonts.com/icon -->
<!DOCTYPE svg PUBLIC "-//W3C//DTD SVG 1.1//EN" "http://www.w3.org/Graphics/SVG/1.1/DTD/svg11.dtd">
<svg version="1.1" xmlns="http://www.w3.org/2000/svg" xmlns:xlink="http://www.w3.org/1999/xlink" x="0px" y="0px" viewBox="0 0 256 256" enable-background="new 0 0 256 256" xml:space="preserve">
<metadata> Svg Vector Icons : http://www.onlinewebfonts.com/icon </metadata>
<g><g><g><path fill="#000000" d="M101.5,10.3c-23.3,1.7-46,10.2-64.1,23.9c-4,3-4.8,3.4-5,2.7c-0.1-0.5-0.9-2.6-1.8-4.7c-1.9-4.7-3.4-5.9-6.5-5.1c-2.3,0.6-3.4,2-3.4,4.4c0,2.4-1.7-2.4,62.3,176.1c6.7,18.9,12.6,35,13,35.7c2.3,4.4,8.9,3,8.9-1.9c0-1.3-3.9-12.8-11.7-34.7L81.4,174l2.5-2.3c8.1-7.3,21.2-15.3,30.3-18.4c6.9-2.4,11.6-3,20-2.7c8.8,0.3,16.9,1.6,25.9,4.2c16.4,4.6,20.6,5.4,30.1,5.3c10.5,0,18.9-1.4,29.8-5.2c6.7-2.2,12.7-5,14-6.5c1-1.1,1-1.8,1.1-67.6c0-42,0-67.1-0.3-67.8c-1.1-2.8-5.2-3.7-7.9-1.6c-7.4,5.5-18.2,11.6-26.1,14.6c-5.5,2.1-12.6,3.6-18.2,3.9c-9.4,0.5-16.4-1.5-34.9-10.2C130.5,11.5,118.2,9.1,101.5,10.3z M116.7,20.3c0.2,0.4,9.9,36.6,9.9,37.1c0,0.1-2.9,0.2-6.4,0.1c-7.1-0.2-14.5,0.4-21.6,1.8c-4.9,1-15.3,3.7-16.3,4.3c-0.4,0.3,1.5,5.8,7.6,21.5c4.5,11.6,8.2,21.3,8.2,21.6c0,0.3-2.6,1.8-5.7,3.3c-6.5,3.2-14,8-21.2,13.8c-2.7,2.2-5.2,4.1-5.5,4.2c-0.3,0.1-3.8-8.9-8.6-22.3L49,83.2l1.6-1.3c5.6-4.8,15.9-11.1,25-15.3c3.1-1.4,5.7-2.8,5.7-3.1c0-0.3-3-8.3-6.7-17.8c-3.7-9.5-6.6-17.4-6.4-17.6c0.5-0.5,6.9-2.7,11.7-4c5.2-1.5,10.6-2.6,16.8-3.4C102,20,116.3,19.7,116.7,20.3z M156.5,34.4c5.5,2.3,10.4,3.8,14.8,4.5c5.1,0.9,14.1,0.9,19.1,0c2.1-0.4,4.1-0.7,4.4-0.7s1,6.4,1.9,17.7c0.8,9.8,1.4,17.8,1.5,17.9c0.1,0.1,2.2-0.5,4.6-1.4c5-1.7,13.8-6,18.9-9.1c1.9-1.1,3.5-2.1,3.8-2.3c0.2-0.1,0.3,9.3,0.3,21v21.2l-2.3,1.2c-3.5,1.7-12.4,4.9-17.4,6.3c-2.5,0.7-4.6,1.3-4.7,1.4c-0.1,0.1,0.5,8.4,1.3,18.3c0.8,10,1.3,18.3,1.2,18.5c-0.8,1.3-18.4,1.8-23.3,0.7c-1.2-0.2-1.3-0.9-5.4-18.8c-2.3-10.2-4.1-18.7-4-18.8c0.1-0.1,2.9,0.1,6.2,0.6c3.3,0.4,7.7,0.8,9.8,0.8c3.6,0,13.5-1.1,14-1.5c0.2-0.2-2.7-37.1-2.9-37.4c0-0.1-2.3,0.2-5,0.7c-9.3,1.5-18.8,0.4-28.4-3.4c-1.7-0.7-3.1-1.2-3.2-1.1c0,0,2,9.1,4.5,20.2c2.6,11.1,4.5,20.2,4.4,20.4c-0.1,0.1-4.2-0.8-9.1-2.1c-4.9-1.3-11.5-3-14.6-3.7c-3.2-0.7-6.2-1.4-6.7-1.7c-0.8-0.3-1.9-3.9-6.9-22.7c-3.2-12.3-5.9-22.5-5.9-22.8c0-1.6,12.4,2.3,25.2,7.9c4.8,2.1,8.8,3.8,8.8,3.7c0.1-0.1-7.4-33.2-8.2-36.1c-0.1-0.4-0.1-0.8,0-0.8C152.9,32.9,154.5,33.6,156.5,34.4z M134.8,103.3c2.2,0.3,4.1,0.5,4.2,0.6c0,0,2.3,8.3,5,18.4c2.6,10.1,5,18.6,5.1,19c0.2,0.5-0.2,0.6-2.5,0.3c-12.5-1.4-22.3-1.2-29.8,0.7c-2.2,0.6-4.1,0.9-4.3,0.8c-0.7-0.7-13.6-35.7-13.3-36c0.6-0.6,13.2-3.8,16.9-4.2C119.5,102.3,128.4,102.5,134.8,103.3z"/></g></g></g>
</svg>