<?xml version="1.0" standalone="no"?>
<!DOCTYPE svg PUBLIC "-//W3C//DTD SVG 20010904//EN"
 "http://www.w3.org/TR/2001/REC-SVG-20010904/DTD/svg10.dtd">
<svg version="1.0" xmlns="http://www.w3.org/2000/svg"
 width="250.000000pt" height="250.000000pt" viewBox="0 0 250.000000 250.000000"
 preserveAspectRatio="xMidYMid meet">

<g transform="translate(0.000000,250.000000) scale(0.100000,-0.100000)"
fill="#000000" stroke="none">
<path d="M1473 2366 c-60 -19 -98 -50 -122 -99 -44 -90 -15 -212 68 -290 74
-69 149 -75 210 -15 86 84 117 262 62 352 -37 59 -126 80 -218 52z"/>
<path d="M1135 2201 c-53 -24 -79 -64 -79 -121 0 -84 67 -167 143 -177 83 -11
138 94 112 212 -21 95 -86 127 -176 86z"/>
<path d="M895 2031 c-53 -24 -76 -51 -82 -99 -10 -74 56 -152 128 -152 53 0
78 14 95 55 28 69 11 165 -37 199 -30 21 -54 20 -104 -3z"/>
<path d="M1281 1879 c-87 -17 -172 -51 -245 -99 -100 -65 -150 -112 -207 -193
-66 -94 -93 -179 -92 -287 1 -108 21 -171 118 -357 87 -166 107 -221 140 -388
14 -69 37 -153 51 -189 54 -130 155 -232 255 -256 171 -41 356 110 390 319 12
78 1 147 -56 361 -79 295 -80 338 -14 604 53 208 57 295 16 378 -15 31 -38 63
-51 71 -63 41 -197 57 -305 36z"/>
<path d="M724 1836 c-42 -18 -64 -52 -64 -97 0 -87 137 -144 182 -75 14 21 8
87 -11 124 -15 30 -58 65 -74 62 -1 -1 -16 -7 -33 -14z"/>
<path d="M610 1611 c-38 -37 -38 -72 -2 -111 56 -62 137 -42 135 34 -3 94 -75
136 -133 77z"/>
</g>
</svg>
