<?xml version="1.0" standalone="no"?>
<!DOCTYPE svg PUBLIC "-//W3C//DTD SVG 20010904//EN"
 "http://www.w3.org/TR/2001/REC-SVG-20010904/DTD/svg10.dtd">
<svg version="1.0" xmlns="http://www.w3.org/2000/svg"
 width="5000.000000pt" height="5000.000000pt" viewBox="0 0 5000.000000 5000.000000"
 preserveAspectRatio="xMidYMid meet">

<g transform="translate(0.000000,5000.000000) scale(0.100000,-0.100000)"
fill="#000000" stroke="none">
<path d="M12895 46865 c-359 -57 -662 -267 -767 -530 -27 -69 -31 -92 -31
-170 0 -53 7 -110 16 -138 13 -39 285 -579 667 -1322 43 -82 131 -256 197
-385 130 -254 238 -464 555 -1085 113 -220 269 -526 348 -680 78 -154 168
-329 200 -390 31 -60 106 -206 165 -322 102 -199 111 -213 143 -224 85 -28
299 22 466 109 89 47 219 155 231 191 7 23 -1517 4617 -1558 4696 -104 198
-349 295 -632 250z"/>
<path d="M18684 46429 c-34 -4 -81 -13 -105 -19 -120 -32 -246 -137 -287 -241
-12 -30 -78 -252 -146 -494 -69 -242 -291 -1025 -494 -1740 -204 -715 -407
-1430 -452 -1588 -95 -333 -96 -308 18 -381 160 -103 412 -163 523 -124 38 13
49 24 49 53 0 10 33 91 74 180 41 88 176 383 301 655 125 272 289 630 365 795
111 241 562 1224 673 1465 13 30 91 199 172 375 81 176 156 345 167 375 27 77
27 187 -2 262 -99 264 -512 470 -856 427z"/>
<path d="M21195 43406 c-42 -20 -80 -60 -980 -1046 -444 -487 -826 -904 -849
-928 l-41 -43 24 -45 c13 -25 42 -65 63 -89 41 -46 128 -115 146 -115 10 0
156 116 937 744 149 119 469 377 713 573 244 196 454 370 467 387 85 111 42
278 -110 432 -101 102 -169 138 -270 142 -45 1 -81 -3 -100 -12z"/>
<path d="M9150 42186 c-78 -21 -141 -59 -217 -130 -118 -110 -206 -258 -253
-426 -42 -152 -36 -346 15 -457 28 -62 103 -145 161 -179 23 -13 941 -315
2040 -669 1100 -355 2007 -647 2016 -650 24 -8 89 54 139 133 50 78 90 174
114 267 18 74 24 191 9 204 -21 19 -3754 1884 -3806 1902 -65 21 -151 24 -218
5z"/>
<path d="M24179 41956 c-26 -7 -167 -75 -315 -151 -581 -298 -686 -351 -879
-450 -202 -104 -462 -237 -1865 -953 -426 -217 -781 -402 -788 -411 -10 -12
-13 -39 -9 -101 10 -178 126 -416 239 -492 l40 -27 37 18 c20 10 926 314 2014
674 1087 361 2000 668 2027 683 142 77 215 224 213 429 -3 314 -188 638 -431
753 -64 30 -88 36 -156 39 -46 1 -101 -3 -127 -11z"/>
<path d="M16660 40910 c-625 -60 -1232 -320 -1735 -745 -137 -115 -364 -347
-470 -480 -176 -220 -354 -513 -459 -756 -294 -683 -332 -1424 -106 -2109 26
-80 169 -435 318 -790 148 -355 509 -1216 802 -1915 293 -698 578 -1380 635
-1515 57 -135 207 -495 335 -800 128 -305 256 -611 285 -680 29 -69 87 -206
128 -305 41 -99 274 -655 517 -1235 243 -580 493 -1176 555 -1325 62 -148 202
-481 310 -740 109 -258 209 -497 222 -530 14 -33 94 -224 178 -425 213 -507
704 -1680 840 -2005 62 -148 271 -648 465 -1110 194 -462 381 -907 415 -990
145 -347 352 -841 417 -995 38 -91 70 -178 70 -194 2 -41 -35 -69 -82 -63 -19
3 -134 39 -255 82 -1067 372 -2077 521 -2975 439 -36 -3 -144 -17 -240 -30
-677 -96 -1285 -324 -1803 -677 -356 -243 -710 -587 -961 -935 -417 -579 -669
-1294 -692 -1962 -31 -913 370 -1630 1046 -1868 119 -42 204 -58 445 -87 1521
-183 2758 -549 3823 -1132 469 -256 883 -538 1352 -919 360 -293 589 -506
1260 -1169 617 -611 810 -791 1110 -1036 334 -273 762 -559 972 -650 118 -52
259 -93 394 -116 130 -22 538 -24 719 -4 456 50 990 160 1563 322 143 40 156
42 180 28 28 -15 -42 151 1958 -4624 196 -467 490 -1169 654 -1560 164 -390
395 -944 515 -1230 119 -286 233 -551 253 -590 43 -83 168 -213 254 -263 172
-102 399 -126 580 -63 29 11 940 461 2023 1001 2305 1149 4538 2263 7205 3592
l1915 955 82 77 c100 94 160 187 204 316 31 88 33 105 34 225 0 98 -4 145 -18
190 -17 54 -106 271 -387 940 -199 473 -1236 2948 -1280 3055 -26 63 -125 300
-220 525 -176 419 -217 517 -646 1540 -136 325 -253 613 -262 640 -18 61 -25
435 -12 565 70 653 215 1382 495 2485 224 886 288 1196 344 1690 34 293 32
721 -4 996 -74 556 -204 930 -722 2073 -309 681 -355 787 -474 1084 -224 559
-589 1430 -1109 2647 -691 1615 -826 1935 -1095 2590 -59 143 -158 381 -220
530 -62 148 -275 668 -475 1155 -199 487 -387 944 -417 1015 -419 997 -1371
1652 -2458 1692 -649 23 -1301 -193 -1815 -603 -178 -142 -408 -390 -545 -589
-101 -147 -104 -147 -246 -29 -317 262 -711 460 -1114 559 -355 87 -795 100
-1145 34 -454 -86 -885 -284 -1238 -568 -196 -158 -401 -382 -552 -602 -84
-122 -100 -124 -215 -24 -593 511 -1433 745 -2215 619 -269 -44 -526 -127
-785 -254 -305 -150 -501 -293 -757 -551 -98 -99 -165 -159 -177 -159 -48 0
-68 39 -297 585 -1008 2406 -1571 3759 -2094 5035 -89 217 -214 521 -277 675
-224 547 -396 840 -677 1161 -435 495 -987 794 -1616 874 -118 15 -416 20
-530 10z m479 -1479 c273 -69 515 -255 710 -546 111 -166 187 -331 460 -996
657 -1607 1697 -4103 2688 -6454 119 -280 232 -550 253 -600 47 -114 359 -853
484 -1148 299 -706 456 -1078 456 -1083 0 -2 70 -172 156 -377 86 -204 197
-469 246 -587 50 -118 189 -451 310 -740 121 -289 249 -595 285 -680 109 -261
133 -300 247 -408 88 -81 217 -150 333 -178 100 -23 290 -15 383 16 124 42
199 89 296 185 78 77 98 105 137 185 59 121 79 208 79 335 0 135 -17 194 -152
515 -62 146 -130 308 -152 360 -22 52 -135 318 -250 590 -116 272 -228 538
-250 590 -35 83 -372 878 -623 1470 -194 459 -235 558 -249 615 -60 240 -42
540 47 776 166 442 536 761 997 860 148 32 399 32 547 1 405 -87 758 -357 937
-718 19 -38 213 -503 431 -1034 219 -531 564 -1370 767 -1865 251 -610 384
-921 413 -966 138 -214 361 -333 620 -333 124 1 201 17 310 68 313 146 486
510 399 842 -23 91 -224 583 -883 2174 -159 381 -282 692 -296 745 -152 586
102 1203 622 1512 215 127 429 184 688 183 165 0 282 -18 425 -66 209 -70 388
-183 545 -345 161 -165 201 -237 378 -679 128 -318 518 -1267 915 -2227 96
-232 126 -285 217 -378 156 -159 386 -242 598 -215 185 23 311 83 437 210 147
147 209 287 218 491 3 94 1 130 -16 195 -11 43 -178 471 -372 949 -206 509
-362 908 -375 961 -82 322 -46 654 103 950 188 373 527 629 953 721 113 24
409 24 518 -1 400 -90 726 -328 919 -671 28 -51 116 -256 200 -470 82 -209
269 -666 415 -1015 364 -872 563 -1357 950 -2320 118 -294 343 -854 500 -1245
854 -2122 1317 -3226 1840 -4380 220 -487 323 -811 396 -1250 52 -308 66 -506
65 -890 -2 -456 -36 -804 -130 -1320 -85 -467 -194 -913 -455 -1870 -275
-1006 -320 -1188 -326 -1320 -4 -79 -1 -128 10 -175 9 -36 192 -486 407 -1000
412 -983 447 -1066 635 -1515 64 -154 187 -446 272 -650 346 -825 772 -1841
1043 -2490 76 -181 206 -492 289 -690 83 -198 151 -369 151 -380 -1 -11 -6
-27 -13 -36 -12 -15 -788 -407 -4447 -2241 -927 -465 -2471 -1240 -3431 -1722
-1148 -576 -1756 -876 -1776 -876 -16 0 -37 8 -46 18 -9 10 -52 103 -96 208
-76 184 -607 1451 -789 1884 -50 118 -149 355 -220 525 -185 441 -477 1140
-957 2285 -230 547 -445 1063 -480 1145 -491 1177 -764 1822 -792 1878 -120
229 -400 383 -661 363 -67 -5 -132 -22 -311 -80 -681 -224 -1288 -378 -1736
-441 -217 -30 -262 -33 -425 -32 l-165 2 -60 34 c-193 111 -468 310 -690 501
-193 166 -471 429 -931 881 -853 840 -1245 1189 -1773 1583 -1292 962 -2825
1593 -4626 1905 -332 57 -401 67 -711 106 -209 27 -282 40 -296 52 -25 22 -55
93 -76 173 -25 100 -22 408 6 560 40 220 102 399 211 615 233 458 608 832
1072 1068 68 34 137 75 152 91 21 21 35 27 60 25 19 -2 92 17 177 45 241 80
510 132 795 155 153 12 571 5 745 -13 723 -74 1493 -294 2350 -670 207 -91
824 -395 861 -425 29 -22 27 -19 404 -921 130 -311 251 -592 268 -625 20 -38
65 -93 122 -150 72 -73 107 -99 175 -133 221 -110 447 -110 670 0 68 33 102
59 175 132 105 104 162 202 196 333 27 106 27 262 0 359 -11 39 -108 280 -215
535 -155 369 -1654 3948 -2046 4884 -48 116 -199 476 -335 800 -136 325 -276
658 -310 740 -34 83 -453 1082 -930 2220 -477 1139 -896 2138 -930 2220 -127
305 -307 733 -890 2125 -329 784 -638 1522 -687 1640 -50 118 -299 715 -555
1325 -256 611 -494 1178 -528 1260 -35 83 -166 398 -293 700 -308 737 -317
766 -316 1070 0 204 17 306 80 486 93 266 219 470 424 683 266 277 603 470
925 530 44 8 89 17 100 20 11 2 88 3 170 1 112 -2 171 -8 234 -24z"/>
<path d="M24190 38454 c-8 -2 -188 -24 -400 -49 -567 -66 -1558 -183 -1690
-200 -63 -8 -137 -17 -165 -20 -431 -49 -966 -114 -974 -119 -39 -24 -54 -241
-25 -366 25 -110 21 -107 219 -114 94 -4 220 -9 280 -11 61 -2 191 -7 290 -10
99 -3 232 -8 295 -10 122 -6 1137 -41 1450 -50 102 -3 216 -8 253 -10 38 -2
191 -7 341 -11 247 -6 277 -5 326 11 223 74 314 473 173 763 -45 92 -121 165
-195 187 -47 14 -140 18 -178 9z"/>
<path d="M9627 38396 c-85 -31 -144 -109 -172 -228 -50 -211 42 -460 184 -502
56 -16 68 -15 441 29 157 19 479 57 715 85 426 50 681 80 845 101 47 6 101 12
120 14 261 29 580 67 597 71 15 3 25 16 32 42 22 78 7 264 -23 295 -10 10
-149 17 -557 30 -299 10 -580 20 -624 22 -44 2 -163 7 -265 10 -102 3 -234 7
-295 10 -60 2 -184 7 -275 10 -91 3 -275 10 -410 15 -294 12 -267 12 -313 -4z"/>
<path d="M10513 36061 c-1255 -417 -2181 -730 -2209 -746 -134 -79 -210 -218
-221 -407 -26 -444 308 -908 654 -908 104 0 170 24 401 144 119 62 357 184
527 271 171 87 378 192 460 235 83 43 256 132 385 198 1677 856 2457 1256
2464 1263 5 5 11 33 14 63 9 111 -60 325 -148 460 -49 75 -122 147 -149 145
-9 0 -989 -323 -2178 -718z"/>
<path d="M12008 33857 c-667 -535 -1258 -1008 -1312 -1052 -71 -58 -107 -95
-128 -132 -56 -100 -48 -220 25 -366 32 -65 59 -101 131 -172 196 -195 412
-241 556 -118 23 20 541 580 1151 1244 808 881 1109 1215 1109 1232 0 76 -190
287 -294 327 -23 8 -112 -61 -1238 -963z"/>
</g>
</svg>
