<?xml version="1.0" standalone="no"?>
<!DOCTYPE svg PUBLIC "-//W3C//DTD SVG 20010904//EN"
 "http://www.w3.org/TR/2001/REC-SVG-20010904/DTD/svg10.dtd">
<svg version="1.0" xmlns="http://www.w3.org/2000/svg"
 width="230.000000pt" height="230.000000pt" viewBox="0 0 230.000000 230.000000"
 preserveAspectRatio="xMidYMid meet">

<g transform="translate(0.000000,230.000000) scale(0.100000,-0.100000)"
fill="#000000" stroke="none">
<path d="M1103 2120 c-13 -5 -32 -24 -43 -42 -19 -32 -20 -50 -20 -460 l0
-428 -25 0 -25 0 0 371 0 371 -35 35 c-32 32 -40 35 -77 30 -26 -3 -51 -15
-67 -31 l-26 -26 -5 -522 -5 -521 -74 112 c-84 127 -109 151 -158 151 -45 0
-69 -14 -88 -50 -31 -59 -23 -79 153 -399 142 -261 176 -314 227 -366 145
-146 335 -209 514 -171 205 43 344 174 396 373 18 69 34 494 35 916 0 227 -3
283 -15 307 -47 91 -172 75 -195 -25 -5 -22 -10 -156 -10 -297 0 -249 -1 -258
-20 -258 -19 0 -19 11 -22 368 -3 331 -5 370 -21 393 -32 48 -86 61 -138 33
-56 -29 -59 -48 -59 -439 l0 -355 -25 0 -25 0 0 436 0 436 -34 34 c-35 35 -68
42 -113 24z"/>
</g>
</svg>
